<svg viewBox="0 0 599.9999999999999 599.9999999999999" fill="none" xmlns="http://www.w3.org/2000/svg" xmlns:xlink="http://www.w3.org/1999/xlink" xmlns:blush="http://design.blush" overflow="visible" width="599.9999999999999px" height="599.9999999999999px"><g id="Master/Spot Illustrations/Give" blush:has-customizable-colors="true" blush:viewBox="0 0 599.9999999999999 599.9999999999999" blush:i="0"><g id="Background" style="mix-blend-mode:soft-light" blush:component="Background" blush:defaultValue="Fluid" blush:width="600" blush:height="600" blush:i="0.0" blush:value="Boom" transform="scale(1 1)" blush:viewBox="12 45 575.9999999999999 504.0000000000001"><g id="Background/Boom" blush:viewBox="12 45 575.9999999999999 504.0000000000001" blush:i="0.0.0"><g id="Group" blush:i="0.0.0.0"><path id="Shape" fill-rule="evenodd" clip-rule="evenodd" d="M493.944 390.113C498.511 403.028 503.234 416.383 508.6 429.72C518.35 454 527.5 486.3 533.06 516.09C533.2 516.852 532.889 517.626 532.259 518.078C531.63 518.529 530.797 518.577 530.12 518.2L530.018 518.143C528.25 517.16 504.322 503.856 493.36 496.89C489.093 494.169 479.935 487.525 468.233 479.034C467.291 478.351 466.333 477.656 465.36 476.95C443.25 460.89 413.48 439.29 397.99 430.29C397.86 459.03 391.891 485.258 385.026 515.422L384.99 515.58C384.7 516.86 384.407 518.147 384.113 519.442C383.343 522.829 382.561 526.266 381.78 529.76C381.632 530.425 381.156 530.969 380.517 531.203C379.878 531.438 379.163 531.331 378.62 530.92C366.411 521.613 355.983 510.088 346.78 499.917L346.71 499.84C341.7 494.3 336.96 489.06 332.38 484.64C320.16 472.87 307.06 457.81 291.26 437.38C283.34 444.87 248.18 477.81 228.34 491.23C223.345 494.609 218.29 498.17 212.967 501.919L211.73 502.79L211.521 502.937C194.496 514.922 176.911 527.3 157.73 536.98C156.977 537.359 156.067 537.224 155.455 536.644C154.843 536.064 154.661 535.162 155 534.39L174.95 488.85C158.49 495.33 101.92 517.64 88.4 523.85C82.75 526.43 77.01 529.16 71.46 531.8C60.6 537 49.38 542.3 38.32 546.86C37.5145 547.191 36.5873 546.963 36.0274 546.296C35.4676 545.629 35.404 544.676 35.87 543.94C35.8906 543.912 36.1831 543.45 36.6824 542.663C39.3396 538.475 47.8526 525.058 52.39 518.5C63.488 502.333 75.3849 486.452 86.9883 470.963C87.8373 469.83 88.6846 468.699 89.53 467.57L90.63 466.11C96.4848 458.34 102.769 450.628 108.856 443.158L109.09 442.87L109.092 442.867C120.882 428.418 133.071 413.479 142.71 397.48C137.08 391.61 110.39 363.98 102.08 356.53C95.38 350.56 87.27 344.51 79.38 338.66C69.72 331.51 59.73 324.1 52.24 316.66C51.7275 316.152 51.5284 315.407 51.719 314.711C51.9095 314.015 52.4602 313.476 53.16 313.3C69.82 309.11 86.07 307.97 99.82 307.4C103.82 307.24 108.44 307.12 113.34 307L113.854 306.987C122.142 306.771 130.632 306.55 137.49 306.07C135.06 295.07 132.93 284.42 130.93 274.07L130.786 273.337C128.949 264.008 127.211 255.18 125.35 246.77C124.66 243.642 123.895 240.411 123.155 237.286L123.09 237.01L123.089 237.008C120.42 225.718 117.66 214.049 116.97 202.72C116.937 202.129 117.168 201.554 117.6 201.15C118.032 200.743 118.621 200.549 119.21 200.62C134.79 202.5 151 207.33 166.67 212C172.19 213.65 177.46 215.21 182.67 216.65C177.706 202.291 170.493 175.536 169.95 173.525L169.93 173.45C169.734 172.614 170.092 171.747 170.822 171.294C171.551 170.841 172.488 170.904 173.15 171.45C173.155 171.454 173.179 171.474 173.22 171.509C174.109 172.256 183.161 179.864 190.66 185.09C187.34 152.847 183.525 120.682 179.827 89.5022L179.66 88.09C178.167 75.63 176.72 63.34 175.32 51.22C175.226 50.3585 175.698 49.5345 176.488 49.1791C177.279 48.8238 178.208 49.0179 178.79 49.66C184.57 56.105 189.795 62.11 194.849 67.9183L195.19 68.31L195.309 68.4464C206.908 81.7786 216.941 93.3099 229.02 105.02C232.71 108.551 238.484 114.909 245.308 122.424C246.195 123.401 247.1 124.398 248.02 125.41C260.5 139.21 275.84 156.17 282.5 160.99C289.37 154.51 325.21 120.66 338.71 107.39C339.289 106.822 340.154 106.66 340.899 106.98C341.645 107.3 342.123 108.039 342.11 108.85C341.71 132 340.8 158.52 337.11 181.19C366.328 174.146 388.736 170.123 412.345 165.883L412.81 165.8L413.373 165.699C421.618 164.22 430.143 162.692 439.05 161.01C459.31 157.194 538.083 145.038 552.03 142.886C553.325 142.686 554.061 142.573 554.14 142.56C554.995 142.428 555.837 142.861 556.229 143.632C556.62 144.403 556.471 145.338 555.86 145.95C539.99 161.87 522.74 176.94 506.06 191.5L505.923 191.62C486.325 208.743 466.088 226.425 447.99 245.6C459.381 249.54 470.557 253.684 481.477 257.732C484.275 258.769 487.056 259.8 489.82 260.82L492.163 261.693C504.336 266.23 516.839 270.889 529.73 275.39C530.483 275.652 531.008 276.337 531.066 277.131C531.125 277.926 530.706 278.68 530 279.05C520.08 284.21 509.27 288.05 498.81 291.75L498.798 291.754C493.772 293.533 488.576 295.372 483.66 297.31C476.45 300.15 465.62 303.59 461.11 305L478.24 347.56C483.87 361.55 488.79 375.5 493.55 389L493.944 390.113ZM416.45 396.26C417.238 396.768 418.274 396.66 418.94 396C419.615 395.329 419.724 394.275 419.2 393.48C411.46 381.05 403.98 366.65 396.75 352.72C395.35 350.013 393.963 347.347 392.59 344.72C383.86 328.02 370.57 308.85 356 291.85C365.026 279.829 375.487 268.115 385.63 256.758L385.78 256.59L385.808 256.559C396.459 244.669 407.468 232.379 417.12 219.39C417.619 218.726 417.655 217.822 417.21 217.12C416.766 216.418 415.934 216.064 415.12 216.23C410.654 217.145 406.109 218.03 401.514 218.926L401.44 218.94L401.36 218.956C374.605 224.201 346.955 229.621 322.26 240.88C320.261 233.754 318.659 226.523 317.46 219.22C316.6 214.59 315.68 209.79 314.68 205.35C314.492 204.543 313.826 203.936 313.005 203.823C312.185 203.71 311.379 204.114 310.98 204.84C307.488 211.038 303.669 217.047 299.54 222.84C295.82 228.24 291.99 233.81 288.05 240.49C272.94 219.84 251.35 196.84 228.35 176.84C227.691 176.258 226.73 176.175 225.98 176.635C225.231 177.094 224.87 177.989 225.09 178.84C226.73 185.74 228.52 193.61 230.41 201.95C232.87 212.8 235.42 224.03 237.73 233.45C241.816 250.133 245.296 268.295 248.982 287.532L249.02 287.73C249.793 291.763 250.58 295.853 251.38 300C243.12 296.7 222 288.4 209.4 285.33C208.677 285.134 207.906 285.357 207.4 285.91C206.901 286.447 206.736 287.215 206.97 287.91C209.7 296.12 213.12 304.48 216.43 312.56C216.755 313.36 217.081 314.161 217.408 314.963C218.348 317.27 219.292 319.587 220.22 321.91C224.11 331.68 233.96 351.75 236.47 356.85C232.65 361.47 216.54 380.92 210.29 387.47C201.31 396.89 183.64 418.31 183.46 418.53C182.907 419.268 182.931 420.288 183.517 421C184.103 421.712 185.1 421.931 185.93 421.53C194.05 417.31 203.52 413.51 212.67 409.84C218.94 407.33 225.42 404.73 231.37 402.02C243.71 396.42 287.23 375.29 296.37 370.84C299.75 376.76 311.2 396.78 314.56 401.84C316.08 404.14 317.58 406.44 319.06 408.74C323.93 416.3 329 424.13 335.06 431.45C335.441 431.907 336.005 432.171 336.6 432.17C336.79 432.173 336.979 432.146 337.16 432.09C337.92 431.867 338.477 431.216 338.58 430.43C341.58 407.47 343.18 380.71 344.58 357.05C353.967 362.69 364.037 367.867 373.903 372.939C374.988 373.497 376.071 374.054 377.15 374.61L377.61 374.844C390.647 381.491 404.105 388.353 416.45 396.26Z" fill="#EAF3F3" blush:i="0.0.0.0.0"/><path id="Path" d="M583.3 407.68C582.88 407.48 573 402.68 564.8 401.03C562.526 400.558 560.173 401.336 558.628 403.069C557.082 404.803 556.579 407.229 557.308 409.434C558.036 411.639 559.886 413.288 562.16 413.76C568.77 415.12 577.56 419.34 577.64 419.38C579.738 420.45 582.25 420.301 584.207 418.992C586.164 417.682 587.26 415.417 587.072 413.07C586.884 410.722 585.441 408.661 583.3 407.68V407.68Z" fill="#EAF3F3" blush:i="0.0.0.0.1"/><path id="Path_2" d="M547.06 217.07C547.552 220.236 550.276 222.574 553.48 222.58C553.815 222.583 554.15 222.556 554.48 222.5L573 219.65C576.548 219.098 578.977 215.773 578.425 212.225C577.873 208.677 574.548 206.248 571 206.8L552.44 209.66C548.916 210.233 546.514 213.542 547.06 217.07Z" fill="#EAF3F3" blush:i="0.0.0.0.2"/><path id="Path_3" d="M372.5 74.0499C372.831 74.1002 373.165 74.1236 373.5 74.1199C376.721 74.1191 379.453 71.7566 379.92 68.5699L382 53.8199C382.381 51.5025 381.482 49.16 379.649 47.6922C377.815 46.2244 375.333 45.8596 373.155 46.7379C370.977 47.6162 369.442 49.601 369.14 51.9299L367 66.6799C366.749 68.3871 367.187 70.1242 368.219 71.5071C369.251 72.8901 370.792 73.8051 372.5 74.0499Z" fill="#EAF3F3" blush:i="0.0.0.0.3"/><path id="Path_4" d="M408.3 105.4C411.363 107.267 415.359 106.301 417.23 103.24L424.82 90.8099C426.701 87.7475 425.743 83.7404 422.68 81.8599C419.618 79.9794 415.611 80.9375 413.73 83.9999L406.14 96.4199C405.227 97.895 404.942 99.6737 405.348 101.36C405.753 103.047 406.816 104.501 408.3 105.4V105.4Z" fill="#EAF3F3" blush:i="0.0.0.0.4"/><path id="Path_5" d="M138.57 121.67C140.197 124.87 144.11 126.146 147.31 124.52C150.511 122.893 151.787 118.98 150.16 115.78L144.63 104.9C143.004 101.688 139.082 100.403 135.87 102.03C132.659 103.656 131.374 107.578 133 110.79L138.57 121.67Z" fill="#EAF3F3" blush:i="0.0.0.0.5"/><path id="Path_6" d="M39.8401 455C39.2018 453.398 37.9519 452.115 36.3665 451.436C34.781 450.757 32.9904 450.737 31.3901 451.38L17.1201 457C14.2348 458.161 12.5763 461.203 13.1638 464.258C13.7512 467.312 16.4199 469.522 19.5301 469.53C20.3552 469.529 21.1728 469.373 21.9401 469.07L36.2201 463.36C39.5044 462.027 41.1148 458.308 39.8401 455V455Z" fill="#EAF3F3" blush:i="0.0.0.0.6"/><path id="Path_7" d="M29.52 379.63H41C44.5899 379.63 47.5 376.72 47.5 373.13C47.5 369.54 44.5899 366.63 41 366.63H29.52C25.9302 366.63 23.02 369.54 23.02 373.13C23.02 376.72 25.9302 379.63 29.52 379.63V379.63Z" fill="#EAF3F3" blush:i="0.0.0.0.7"/><path id="Path_8" d="M60.3102 227.4L68.8702 230.26C71.0727 230.998 73.5016 230.504 75.2417 228.966C76.9819 227.427 77.7691 225.077 77.3067 222.801C76.8444 220.524 75.2027 218.668 73.0002 217.93L64.4402 215.07C62.222 214.277 59.7483 214.746 57.9745 216.296C56.2007 217.846 55.4045 220.235 55.8934 222.54C56.3823 224.844 58.0798 226.704 60.3302 227.4H60.3102Z" fill="#EAF3F3" blush:i="0.0.0.0.8"/><path id="Path_9" d="M36.6102 255.64H37.0502L45.7102 255.06C49.3 254.82 52.0154 251.715 51.7752 248.125C51.5349 244.535 48.43 241.82 44.8402 242.06L36.1802 242.64C33.8579 242.717 31.7531 244.027 30.6585 246.076C29.5639 248.126 29.6459 250.603 30.8735 252.576C32.1011 254.549 34.2879 255.717 36.6102 255.64V255.64Z" fill="#EAF3F3" blush:i="0.0.0.0.9"/><path id="Path_10" d="M290.14 521.14C289.883 517.55 286.765 514.848 283.175 515.105C279.585 515.362 276.883 518.48 277.14 522.07L278.57 542.07C278.831 545.452 281.648 548.064 285.04 548.07H285.51C287.236 547.942 288.84 547.132 289.966 545.818C291.092 544.504 291.648 542.795 291.51 541.07L290.14 521.14Z" fill="#EAF3F3" blush:i="0.0.0.0.10"/><path id="Path_11" d="M243.64 519.54C241.95 519.172 240.184 519.493 238.731 520.432C237.278 521.37 236.26 522.848 235.9 524.54L233.41 535.96C233.04 537.65 233.359 539.418 234.298 540.871C235.237 542.325 236.717 543.343 238.41 543.7C238.867 543.799 239.333 543.849 239.8 543.85C242.853 543.846 245.494 541.722 246.15 538.74L248.64 527.32C249.02 525.624 248.705 523.847 247.765 522.386C246.826 520.924 245.34 519.899 243.64 519.54V519.54Z" fill="#EAF3F3" blush:i="0.0.0.0.11"/><path id="Path_12" d="M565.24 465C561.94 461.37 558.54 457.62 555.3 454.28C552.798 451.704 548.682 451.643 546.105 454.145C543.529 456.647 543.468 460.764 545.97 463.34C549.06 466.52 552.39 470.19 555.61 473.74C558.05 476.42 560.61 479.2 563.03 481.82C564.603 483.581 567.008 484.351 569.311 483.83C571.615 483.31 573.455 481.581 574.117 479.314C574.78 477.047 574.161 474.599 572.5 472.92C570.12 470.36 567.64 467.63 565.24 465Z" fill="#EAF3F3" blush:i="0.0.0.0.12"/></g></g></g><g id="Master/Hands/Give" blush:has-customizable-colors="true" blush:component="Master/Hands/Give" blush:width="600" blush:height="600" blush:i="0.1" blush:value="Give" transform="scale(1 1)" blush:viewBox="0 0 599.9999999999999 599.9999999999999"><g id="Master/Hands/Give" blush:has-customizable-colors="true" blush:viewBox="0 0 599.9999999999999 599.9999999999999" blush:i="0.1.0"><g id="base" blush:i="0.1.0.0"><path id="Path" d="M197.365 304.756C186.471 362.043 182.106 394.08 181.72 431.299C181.636 442.553 182.351 453.792 183.858 464.938C185.12 473.967 192.731 484.469 202.15 490.051C204.667 491.544 215.958 498.862 218.222 500.273C223.645 503.652 228.308 506.296 232.778 508.435C243.131 513.39 251.694 515.23 258.67 513.157C267.197 510.636 272.972 503.128 278.045 490.821C279.407 487.516 283.415 476.419 283.033 477.431C286.394 468.517 292.837 449.166 297.265 434.785C296.992 436.555 296.693 438.374 296.367 440.25C295.429 445.648 294.337 451.17 292.805 458.439C292.863 458.165 290.217 470.593 289.545 473.867C288.41 479.405 287.621 483.673 287.071 487.409C286.915 488.469 286.752 489.523 286.514 491.028C284.861 501.47 284.502 504.81 284.985 509.137C285.667 515.242 288.591 519.325 294.333 521.219C304.407 524.547 313.969 516.36 321.941 498.797C323.819 494.655 325.798 490.02 327.871 484.922C330.031 479.609 332.279 473.833 334.612 467.621C340.706 451.402 353.93 413.221 353.223 415.111C355.039 410.249 356.71 404.354 359.124 394.793C358.957 395.454 361.285 386.169 361.902 383.778C362.19 382.661 362.464 381.619 362.726 380.642C362.781 380.826 362.836 381.012 362.892 381.202C362.831 380.994 365.086 388.682 365.761 390.894C369.935 404.578 373.735 412.88 379.546 418.685C382.952 421.928 387.633 423.37 392.225 422.613C399.187 421.32 402.124 418.312 403.214 411.559C404.073 406.261 404.138 400.615 403.612 393.497C403.435 391.102 403.243 389.047 402.833 385.004C402.492 381.631 402.379 380.488 402.232 378.815C401.653 372.292 401.243 367.01 400.379 355.33C399.503 343.472 399.102 338.298 398.522 331.744C397.459 319.751 396.292 310.144 393.477 288.912C392.973 285.113 392.77 283.576 392.503 281.54C390.299 264.754 389.028 253.72 388.113 242.379C386.816 226.535 386.116 207.382 386.617 197.572C386.816 193.685 417.867 2.68218 417.867 2.68218C418.093 1.45321 417.15 0.32 415.9 0.32L270.39 0.32C269.441 0.32 268.623 0.986148 268.431 1.91493L240.036 132.444C235.658 149.085 202.113 279.797 197.365 304.756Z" fill="#1fad66" blush:color="Skin-500" blush:i="0.1.0.0.0"/><path id="Path" d="M251.602 423.655C251.572 423.797 251.517 424.063 251.44 424.437C251.312 425.06 251.169 425.757 251.016 426.51C250.576 428.663 250.137 430.84 249.727 432.906C249.664 433.22 249.664 433.22 249.602 433.535C248.994 436.609 248.516 439.113 248.21 440.854C247.4 445.477 246.475 449.947 244.931 456.907C244.764 457.662 244.639 458.222 244.322 459.646C242.839 466.304 242.183 469.334 241.438 473.091C240.755 476.522 240.24 479.333 239.155 485.433C238.781 487.539 238.636 488.352 238.436 489.461C238.068 491.509 237.749 493.242 237.435 494.897C236.433 500.352 236.293 505.53 237.365 509.644C237.643 510.713 238.736 511.354 239.804 511.075C240.873 510.797 241.514 509.705 241.236 508.636C240.338 505.19 240.463 500.551 241.367 495.631C241.682 493.973 242.003 492.229 242.373 490.169C242.573 489.056 242.719 488.242 243.094 486.133C244.173 480.06 244.685 477.267 245.362 473.871C246.099 470.153 246.751 467.144 248.226 460.516C248.544 459.09 248.669 458.53 248.836 457.773C250.392 450.759 251.328 446.24 252.15 441.545C252.45 439.84 252.923 437.359 253.526 434.311C253.588 433.998 253.588 433.998 253.65 433.685C254.059 431.626 254.497 429.456 254.935 427.31C255.088 426.559 255.231 425.864 255.358 425.243C255.435 424.871 255.49 424.606 255.519 424.465C255.742 423.384 255.047 422.325 253.965 422.102C252.884 421.878 251.825 422.573 251.602 423.655Z" fill="#007d43" blush:color="Skin-700" blush:i="0.1.0.0.1"/><path id="Path" d="M221.05 412.556C220.741 413.912 220.392 415.384 219.908 417.388C219.844 417.651 218.915 421.484 218.637 422.641C218.262 424.203 217.943 425.551 217.646 426.84C216.341 432.501 215.483 436.895 215.015 440.642C213.961 449.083 212.723 457.409 211.309 465.548C211.14 466.524 210.446 470.452 210.284 471.384C210.086 472.518 209.913 473.523 209.752 474.483C208.423 482.413 207.844 487.542 208.127 490.755C208.224 491.856 209.195 492.669 210.295 492.572C211.395 492.475 212.209 491.505 212.112 490.405C211.87 487.662 212.429 482.707 213.697 475.144C213.857 474.194 214.028 473.197 214.224 472.071C214.386 471.145 215.079 467.215 215.25 466.232C216.675 458.03 217.923 449.641 218.984 441.138C219.432 437.555 220.267 433.277 221.544 427.739C221.838 426.463 222.154 425.126 222.526 423.576C222.803 422.423 223.732 418.594 223.796 418.327C224.284 416.307 224.636 414.821 224.95 413.444C225.195 412.367 224.521 411.295 223.444 411.05C222.367 410.805 221.295 411.479 221.05 412.556Z" fill="#007d43" blush:color="Skin-700" blush:i="0.1.0.0.2"/><path id="Path" d="M289.525 253.549C292.584 254.181 295.629 253.812 300.496 252.645C301.57 252.387 302.232 251.308 301.975 250.234C301.717 249.16 300.638 248.498 299.564 248.755C295.253 249.789 292.632 250.107 290.335 249.631C289.254 249.408 288.195 250.103 287.972 251.185C287.748 252.266 288.443 253.325 289.525 253.549Z" fill="#007d43" blush:color="Skin-700" blush:i="0.1.0.0.3"/><path id="Path" d="M207.228 410.529C209.447 410.925 211.751 411.555 218.054 413.407L218.339 413.49C224.148 415.196 226.95 415.947 229.46 416.381C232.743 416.95 235.581 417.782 240.512 419.489C240.82 419.596 241.111 419.697 241.713 419.906C246.064 421.417 248.257 422.118 251.003 422.792C252.233 423.096 253.513 423.37 255.059 423.67C255.742 423.802 256.248 423.897 257.524 424.134C263.159 425.178 265.651 425.772 268.594 426.956C274.792 429.452 280.14 431.065 291.547 434.129L292.008 434.252C301.258 436.736 305.366 437.922 310.296 439.657C311.338 440.023 312.48 439.476 312.847 438.434C313.213 437.392 312.666 436.25 311.624 435.883C306.566 434.104 302.393 432.899 293.045 430.389L292.585 430.265C281.331 427.243 276.088 425.662 270.087 423.245C266.817 421.93 264.146 421.293 258.253 420.201C256.988 419.966 256.489 419.873 255.821 419.743C254.335 419.455 253.117 419.194 251.959 418.908C249.369 418.272 247.263 417.599 243.026 416.127C242.424 415.918 242.131 415.817 241.821 415.709C236.7 413.936 233.694 413.055 230.141 412.439C227.842 412.042 225.109 411.309 219.466 409.652L219.182 409.569C212.697 407.664 210.359 407.025 207.932 406.591C206.844 406.397 205.805 407.121 205.611 408.208C205.417 409.296 206.141 410.335 207.228 410.529Z" fill="#007d43" blush:color="Skin-700" blush:i="0.1.0.0.4"/><path id="Path" d="M336.545 358.703C327.083 361.329 305.965 354.663 299.586 347.364C290.935 337.537 285.685 320.469 286.407 306.07C286.463 304.967 285.613 304.028 284.51 303.972C283.407 303.917 282.468 304.767 282.412 305.87C281.64 321.262 287.205 339.354 296.579 350.002C303.951 358.437 326.647 365.601 337.615 362.557C338.679 362.262 339.303 361.159 339.007 360.095C338.712 359.031 337.609 358.407 336.545 358.703Z" fill="#007d43" blush:color="Skin-700" blush:i="0.1.0.0.5"/><path id="Path" d="M206.805 352.652C213.127 352.099 219.498 352.595 225.659 354.121C227.678 354.593 229.537 354.997 232.786 355.684C236.391 356.446 236.7 356.512 238.12 356.822C247.835 358.947 254.117 360.864 259.848 363.8C272.471 370.263 284.115 378.862 290.536 387.329C291.204 388.209 292.458 388.381 293.339 387.714C294.219 387.046 294.391 385.792 293.724 384.911C286.878 375.885 274.782 366.953 261.672 360.24C255.561 357.109 249.001 355.108 238.975 352.915C237.541 352.601 237.23 352.535 233.613 351.77C230.39 351.089 228.552 350.689 226.595 350.232C220.032 348.606 213.218 348.075 206.456 348.668C205.355 348.764 204.541 349.734 204.638 350.835C204.734 351.935 205.704 352.749 206.805 352.652Z" fill="#007d43" blush:color="Skin-700" blush:i="0.1.0.0.6"/></g><g id="Give/Wear" blush:component="Give/Wear" blush:defaultValue="Tattoo" blush:width="600" blush:height="600" blush:i="0.1.0.1" blush:value="Phone" transform="scale(1 1)" blush:viewBox="186 0 293.99999999999994 144.0000000000001"><g id="Give/Wear/Phone" blush:viewBox="186 0 293.99999999999994 144.0000000000001" blush:i="0.1.0.1.0"><g id="clothing" blush:i="0.1.0.1.0.0"><path id="Path" d="M459.626 3.22453C448.874 -0.341267 415.642 -0.0207464 411.908 0.029335C396.729 0.22966 379.937 0.299774 362.148 0.369888C335.943 0.480067 308.83 0.590246 286.085 1.14114L278.197 1.32143C257.271 1.7922 235.631 2.32306 215.202 4.92729C190.591 8.12248 189.105 25.3204 187.786 40.4951C187.629 42.278 187.473 44.0709 187.287 45.8538C186.232 55.7398 185.274 83.8054 186.779 94.7332L186.975 96.2056C188.108 104.719 190.454 122.428 198 130.622C206.621 139.987 222.435 141.579 235.279 141.92L238.739 142C241.671 129.56 245.131 115.447 248.953 100.573L249.52 97.7782C249.129 94.4928 248.796 91.1975 248.454 87.9522L248.083 84.3463C247.213 76.0328 246.314 67.4389 245.981 58.925C245.717 52.0839 245.669 45.4732 248.014 39.8941C250.292 34.4152 254.944 32.8827 261.698 32.0413C265.117 31.6818 268.554 31.518 271.991 31.5505C273.769 31.5505 275.539 31.5505 277.288 31.6106C280.953 31.6106 284.736 31.7208 288.48 31.5405C307.969 30.5389 327.782 30.6992 346.959 30.8093L356.205 30.8594C359.724 30.8594 363.379 30.7392 366.957 30.599C376.858 30.2184 387.092 29.8177 396.279 32.6023C396.453 32.6614 396.634 32.6918 396.817 32.6924C412.807 32.7525 426.482 33.8443 431.769 46.6551C434.066 52.2342 432.571 68.6909 427.86 89.5047C423.149 110.319 417.978 123.851 416.209 125.263C412.465 127.587 407.285 127.537 402.281 127.496C400.326 127.496 398.469 127.496 396.69 127.587C396.094 130.962 395.39 135.069 394.676 139.356L407.832 139.045L418.946 138.785C420.422 138.785 422.015 138.725 423.696 138.695C434.78 138.534 449.979 138.324 458.883 133.686C474.727 125.523 476.477 105.591 477.757 91.0372C477.913 89.2743 478.06 87.6016 478.226 86.0291C479.868 70.4037 478.686 42.298 476.653 22.606C475.734 13.7216 469.361 6.47982 459.626 3.22453Z" fill="#1A4E66" blush:i="0.1.0.1.0.0.0"/><path id="Path_2" d="M465.77 45.0994C464.961 40.1231 462.944 33.216 454.837 30.0312C446.73 26.8464 414.78 26.9161 405.484 27.0455C371.011 27.4734 323.461 27.1052 289.065 27.8914C267.931 28.3791 241.32 28.3691 220.488 30.8772C197.103 33.7435 198.642 46.3733 196.976 61.2027C195.946 71.3524 195.731 81.5714 196.333 91.757C196.762 97.6689 199.149 114.648 206.077 121.744C213.512 129.408 227.601 130.701 238.67 130.94L241.379 131C243.727 121.346 246.251 110.936 249.086 100.147L258.148 55.3605C274.985 45.8458 301.225 39.725 330.73 39.725C363.547 39.725 392.34 47.2989 408.612 58.6946L397.816 118.45C397.816 118.579 397.007 122.839 395.965 128.82L410.775 128.492C420.919 128.253 441.78 128.9 450.725 124.511C465.916 117.086 465.964 97.0219 467.29 84.8101C468.8 71.414 467.718 56.9828 465.77 45.0994Z" fill="white" blush:i="0.1.0.1.0.0.1"/><path id="Path_3" d="M237 80.7512C237 88.371 241.194 95.6385 249.073 102C249.161 101.628 249.259 101.245 249.357 100.873L259 53C244.751 60.6802 237 70.3835 237 80.7512Z" fill="#0D323F" blush:i="0.1.0.1.0.0.2"/><path id="Path_4" d="M408.837 57L399 110C415.797 102.132 425 91.8374 425 80.7741C425 72.1172 419.347 63.9196 408.837 57Z" fill="#0D323F" blush:i="0.1.0.1.0.0.3"/><path id="Path_5" d="M470.714 23.6422C467.48 18.3022 458.361 16.0973 443.708 15.4523C439.552 15.2694 436.153 15.2314 429.37 15.2338C426.092 15.235 424.796 15.2303 423.348 15.204C413.941 15.0328 403.074 14.9825 387.829 15.0051C384.512 15.01 381.659 15.0165 376.04 15.031C363.784 15.0626 358.967 15.0697 353.089 15.0561C316.846 14.9923 278.085 15.877 235.159 17.6057C223.414 18.0767 212.172 19.9221 204.212 23.2111C203.215 23.6231 202.738 24.7722 203.146 25.7778C203.555 26.7833 204.694 27.2646 205.691 26.8526C213.15 23.7706 223.984 21.9922 235.315 21.5378C278.19 19.8111 316.899 18.9276 353.081 18.9913C358.967 19.005 363.787 18.9978 376.05 18.9662C381.668 18.9517 384.519 18.9452 387.835 18.9403C403.056 18.9177 413.902 18.9679 423.278 19.1386C424.759 19.1655 426.067 19.1702 429.371 19.1691C436.099 19.1667 439.458 19.2042 443.538 19.3838C456.751 19.9654 465.144 21.9949 467.384 25.6936C467.946 26.6209 469.146 26.9135 470.066 26.347C470.985 25.7805 471.275 24.5695 470.714 23.6422Z" fill="#0D323F" blush:i="0.1.0.1.0.0.4"/><path id="Path_6" d="M256.074 11.997C265.219 11.4779 277.597 11.0689 282.971 11.2426C284.058 11.2777 284.966 10.3659 284.999 9.20606C285.032 8.04617 284.177 7.0774 283.09 7.04225C277.573 6.8639 265.116 7.27555 255.865 7.80066C254.779 7.86232 253.945 8.85168 254.003 10.0105C254.061 11.1692 254.988 12.0586 256.074 11.997Z" fill="#0D323F" blush:i="0.1.0.1.0.0.5"/><path id="Path_7" d="M249.3 94.968C244.408 90.1266 241.9 84.9777 241.9 79.7601C241.9 58.8182 282.128 41.0047 332 41.0047C381.872 41.0047 422.1 58.8182 422.1 79.7601C422.1 87.3799 416.72 94.8588 406.611 101.296C405.696 101.879 405.414 103.113 405.981 104.053C406.549 104.993 407.751 105.282 408.667 104.699C419.81 97.6035 426 88.9981 426 79.7601C426 55.6856 383.803 37 332 37C280.197 37 238 55.6856 238 79.7601C238 86.1662 240.99 92.3065 246.593 97.8513C247.368 98.6188 248.603 98.5955 249.35 97.7993C250.098 97.0031 250.075 95.7355 249.3 94.968Z" fill="#0D323F" blush:i="0.1.0.1.0.0.6"/></g></g></g><g id="Give/Item" blush:component="Give/Item" blush:defaultValue="Email" blush:width="600" blush:height="600" blush:i="0.1.0.2" blush:value="Bomb" transform="scale(1 1)" blush:viewBox="117 207 234.00000000000003 194.99999999999983"><g id="Give/Item/Bomb" blush:viewBox="117 207 234.00000000000003 194.99999999999983" blush:i="0.1.0.2.0"><g id="items" blush:i="0.1.0.2.0.0"><path id="Path" d="M348.22 323.66C343.54 298.09 331.76 283.08 308.83 273.49C304.347 271.778 299.667 270.633 294.9 270.08C294.78 269.08 294.63 268.14 294.49 267.2C294.24 265.54 294.01 263.98 293.95 262.75C293.38 251.24 288.26 249.14 279 249.32C271.33 249.46 266.05 250.32 257.8 251.93C253.16 252.87 239.56 257.73 235.41 262.53C232.04 266.42 234.76 277.67 237.15 285.24C230.15 290.52 224.62 296.47 221.47 302.41C214.16 316.2 212.11 334.41 216.13 350.04C220.15 365.67 232.28 386.04 246.8 392.92C257.937 398.358 270.138 401.264 282.53 401.43C286.936 401.474 291.329 400.97 295.61 399.93C311.85 395.72 327.22 385.73 336.72 373.2C346.94 359.73 351.35 340.75 348.22 323.66Z" fill="#3B3B3B" blush:i="0.1.0.2.0.0.0"/><path id="Path_2" d="M237.106 313.011C237.553 312.25 238.059 311.525 238.619 310.843C239.67 309.562 239.484 307.672 238.203 306.621C236.922 305.57 235.032 305.756 233.981 307.037C233.224 307.96 232.539 308.94 231.934 309.969C231.094 311.398 231.571 313.236 232.999 314.076C234.428 314.916 236.266 314.439 237.106 313.011Z" fill="white" blush:i="0.1.0.2.0.0.1"/><path id="Path_3" d="M230.872 342.824C230.049 337.699 231.141 328.87 233.559 321.258C234.061 319.679 233.188 317.993 231.608 317.491C230.029 316.989 228.343 317.863 227.841 319.442C225.161 327.876 223.958 337.608 224.948 343.776C225.211 345.411 226.75 346.525 228.386 346.262C230.022 345.999 231.135 344.46 230.872 342.824Z" fill="white" blush:i="0.1.0.2.0.0.2"/><path id="Path_4" d="M154.116 222.262L153.492 221.892C148.46 218.902 145.958 217.34 143.211 215.381C141.381 214.077 139.122 216.317 140.412 218.158C145.376 225.239 149.98 235.288 153.569 246.068C153.016 246.234 152.429 246.413 151.815 246.603C149.006 247.474 146.197 248.414 143.567 249.389C140.273 250.611 137.495 251.804 135.381 252.949C133.72 253.85 132.47 254.718 131.643 255.611C130.721 256.605 131.036 258.21 132.265 258.783C134.116 259.646 136.573 260.637 139.544 261.737C140.716 262.171 141.959 262.619 143.265 263.077C146.43 264.19 149.817 265.319 153.204 266.407C153.728 266.575 154.235 266.737 154.723 266.892C153.646 268.084 152.576 269.275 151.569 270.41C151.441 270.554 151.441 270.554 151.314 270.698C149.549 272.689 148.163 274.295 147.275 275.392C139.72 284.724 136.294 289.913 133.935 296.922C133.385 298.555 135.02 300.073 136.608 299.402C142.259 297.016 146.68 294.545 156.111 288.815C156.715 288.447 156.999 288.275 157.319 288.081C162.688 284.82 166.014 282.885 169.309 281.184C171.54 284.61 174.622 287.489 179.195 290.873C179.708 291.253 180.239 291.64 180.896 292.113C181.189 292.324 182.294 293.118 182.551 293.303C183.992 294.341 185.969 293.127 185.696 291.372C185.549 290.425 185.168 287.805 184.629 284.038L184.611 283.914C184.365 282.192 184.102 280.346 183.84 278.5C183.748 277.854 183.663 277.254 183.586 276.716C183.508 276.162 183.508 276.162 183.49 276.04C183.335 274.946 182.323 274.185 181.23 274.34C180.136 274.495 179.375 275.507 179.53 276.6C179.547 276.724 179.547 276.724 179.626 277.278C179.702 277.817 179.788 278.417 179.879 279.063C180.142 280.91 180.405 282.757 180.652 284.481L180.67 284.605C180.808 285.571 180.936 286.462 181.052 287.269C176.496 283.847 173.704 281.042 171.826 277.602C171.311 276.66 170.146 276.292 169.184 276.767C165.155 278.759 161.598 280.803 155.243 284.661C154.923 284.856 154.638 285.029 154.033 285.396C147.414 289.419 143.325 291.796 139.556 293.659C141.718 289.127 144.902 284.681 150.385 277.908C151.225 276.87 152.58 275.3 154.307 273.351C154.433 273.208 154.433 273.208 154.56 273.066C155.702 271.779 156.927 270.416 158.153 269.064C158.582 268.591 158.98 268.153 159.337 267.761C159.551 267.526 159.704 267.359 159.785 267.271C160.778 266.187 160.301 264.438 158.896 264.008C158.842 263.991 158.734 263.958 158.578 263.91C158.317 263.829 158.013 263.735 157.671 263.628C156.693 263.322 155.602 262.976 154.428 262.599C151.073 261.521 147.718 260.403 144.591 259.304C143.305 258.852 142.083 258.412 140.933 257.986C139.554 257.476 138.292 256.99 137.162 256.535C137.203 256.512 137.245 256.489 137.287 256.466C139.206 255.426 141.826 254.302 144.958 253.14C147.512 252.192 150.256 251.275 153 250.423C153.962 250.125 154.854 249.857 155.654 249.623C156.132 249.483 156.471 249.386 156.649 249.336C157.74 249.031 158.36 247.881 158.015 246.802C155.325 238.368 152.013 230.276 148.337 223.467C149.266 224.03 150.292 224.643 151.449 225.33L152.073 225.701C161.78 231.467 165.971 234.384 170.144 238.88C170.978 239.779 172.417 239.723 173.178 238.762C174.836 236.669 176.658 234.714 178.627 232.916L178.241 244.825C178.205 245.929 179.071 246.853 180.175 246.889C181.279 246.925 182.203 246.059 182.239 244.955L182.769 228.585C182.824 226.899 180.896 225.907 179.556 226.931C176.613 229.179 173.911 231.724 171.493 234.524C167.454 230.535 162.982 227.529 154.116 222.262Z" fill="#F9B200" blush:i="0.1.0.2.0.0.3"/><path id="Path_5" d="M165.524 306.068L164.894 308.498C164.617 309.567 165.259 310.659 166.328 310.936C167.397 311.213 168.489 310.571 168.766 309.502L169.396 307.072C169.673 306.003 169.031 304.911 167.962 304.634C166.893 304.357 165.801 304.999 165.524 306.068Z" fill="#F9B200" blush:i="0.1.0.2.0.0.4"/><path id="Path_6" d="M148.289 304.685L145.269 309.185C144.654 310.103 144.898 311.345 145.816 311.961C146.733 312.576 147.975 312.332 148.591 311.414L151.611 306.914C152.226 305.997 151.982 304.755 151.065 304.139C150.147 303.524 148.905 303.768 148.289 304.685Z" fill="#F9B200" blush:i="0.1.0.2.0.0.5"/><path id="Path_7" d="M122.324 273.838L119.274 275.638C118.322 276.199 118.006 277.425 118.568 278.377C119.129 279.328 120.355 279.644 121.307 279.082L124.357 277.282C125.308 276.721 125.624 275.495 125.063 274.544C124.501 273.592 123.275 273.276 122.324 273.838Z" fill="#F9B200" blush:i="0.1.0.2.0.0.6"/><path id="Path_8" d="M131.687 231.198L129.537 229.928C128.586 229.366 127.36 229.682 126.798 230.633C126.236 231.584 126.552 232.81 127.503 233.372L129.653 234.642C130.604 235.204 131.83 234.888 132.392 233.937C132.954 232.986 132.638 231.76 131.687 231.198Z" fill="#F9B200" blush:i="0.1.0.2.0.0.7"/><path id="Path_9" d="M169.189 212.099L168.889 210.059C168.728 208.966 167.712 208.211 166.619 208.371C165.526 208.532 164.771 209.548 164.931 210.641L165.231 212.681C165.392 213.774 166.408 214.529 167.501 214.369C168.594 214.208 169.35 213.192 169.189 212.099Z" fill="#F9B200" blush:i="0.1.0.2.0.0.8"/><path id="Path_10" d="M191.582 220.148C192.906 219.153 194.088 217.982 195.097 216.668C195.769 215.791 195.604 214.536 194.728 213.863C193.851 213.191 192.596 213.356 191.923 214.232C191.136 215.259 190.212 216.174 189.178 216.952C188.295 217.616 188.118 218.869 188.782 219.752C189.446 220.635 190.699 220.812 191.582 220.148Z" fill="#F9B200" blush:i="0.1.0.2.0.0.9"/><path id="Path_11" d="M273 257.63C272.66 256.57 272.19 255.47 271.81 254.63C271.62 254.17 271.45 253.78 271.37 253.53L270.93 252.23C269.85 249 268.73 245.67 267.44 242.46C263.16 231.83 255.44 217.75 242.77 211C233 205.79 219.6 207.58 212.24 215.07C205.7 221.74 202.63 230.43 199.66 238.83C198.81 241.25 197.93 243.74 196.99 246.11C195.5 249.86 194.13 252.78 191.32 253.29C189.27 253.67 185.45 253.29 184.2 252.29C183.324 251.621 182.072 251.786 181.4 252.66C179.47 255.16 179.58 262.92 181.14 265.55C182.85 268.41 189.14 270.7 189.42 270.79C191.266 271.484 193.218 271.852 195.19 271.88C206.34 271.88 211.47 258.26 215.72 247.01C218.43 239.82 221.23 232.39 224.99 229.56C229.04 226.56 231.66 226.2 236.22 228.2C239.88 229.8 241.43 230.71 243.22 233.89C247.96 242.25 250.36 252.49 252.41 262.27C252.526 262.819 252.867 263.295 253.35 263.58C255.85 265.06 259.48 264.16 261.89 263.58L262.68 263.39C265.853 262.61 268.942 261.518 271.9 260.13C272.867 259.716 273.348 258.623 273 257.63Z" fill="#CCC9C6" blush:i="0.1.0.2.0.0.10"/><path id="Path_12" d="M191.838 266.218C189.536 264.647 186.726 257.671 187.498 255.655C187.893 254.624 187.377 253.467 186.345 253.072C185.314 252.677 184.157 253.193 183.762 254.225C182.276 258.106 185.847 266.972 189.583 269.522C190.495 270.145 191.739 269.91 192.362 268.998C192.985 268.085 192.75 266.841 191.838 266.218Z" fill="#AFACAA" blush:i="0.1.0.2.0.0.11"/><path id="Path_13" d="M205.047 261.933C200.24 259.935 196.767 257.455 196.344 255.245C196.137 254.16 195.09 253.448 194.005 253.656C192.92 253.863 192.208 254.91 192.416 255.995C193.193 260.065 197.457 263.111 203.513 265.627C204.533 266.051 205.703 265.567 206.127 264.547C206.551 263.527 206.067 262.357 205.047 261.933Z" fill="#AFACAA" blush:i="0.1.0.2.0.0.12"/><path id="Path_14" d="M210.727 249.41C206.92 250.275 202.074 249.533 201.584 247.919C201.263 246.862 200.146 246.265 199.089 246.586C198.032 246.908 197.435 248.025 197.757 249.081C199.116 253.556 205.935 254.601 211.613 253.31C212.691 253.065 213.365 251.994 213.12 250.917C212.876 249.84 211.804 249.165 210.727 249.41Z" fill="#AFACAA" blush:i="0.1.0.2.0.0.13"/><path id="Path_15" d="M214.126 239.598C211.039 240.121 205.437 238.698 204.549 237.016C204.033 236.039 202.823 235.666 201.846 236.182C200.869 236.697 200.496 237.907 201.012 238.884C202.905 242.467 210.199 244.32 214.794 243.542C215.883 243.357 216.617 242.325 216.432 241.236C216.248 240.147 215.215 239.414 214.126 239.598Z" fill="#AFACAA" blush:i="0.1.0.2.0.0.14"/><path id="Path_16" d="M219.746 229.576C215.932 230.064 212.111 228.724 209.438 225.96C208.67 225.166 207.403 225.144 206.61 225.912C205.816 226.68 205.794 227.947 206.562 228.74C210.113 232.411 215.188 234.192 220.254 233.544C221.349 233.404 222.124 232.402 221.984 231.306C221.844 230.211 220.842 229.436 219.746 229.576Z" fill="#AFACAA" blush:i="0.1.0.2.0.0.15"/><path id="Path_17" d="M224.94 224.58C221.44 223.142 217.334 218.246 217.912 215.91C218.177 214.838 217.523 213.754 216.451 213.489C215.378 213.223 214.294 213.877 214.029 214.949C212.858 219.679 218.311 226.181 223.42 228.28C224.442 228.7 225.61 228.212 226.03 227.19C226.45 226.168 225.962 225 224.94 224.58Z" fill="#AFACAA" blush:i="0.1.0.2.0.0.16"/><path id="Path_18" d="M231.054 222.841C229.444 219.146 229.497 213.227 231.589 211.851C232.512 211.244 232.768 210.004 232.161 209.081C231.554 208.158 230.314 207.902 229.391 208.509C225.16 211.292 225.09 219.168 227.387 224.439C227.828 225.452 229.007 225.915 230.019 225.474C231.032 225.032 231.495 223.854 231.054 222.841Z" fill="#AFACAA" blush:i="0.1.0.2.0.0.17"/><path id="Path_19" d="M239.891 225.199C239.067 222.805 241.624 217.758 244.412 215.989C245.344 215.397 245.621 214.161 245.029 213.228C244.437 212.296 243.201 212.019 242.268 212.611C238.063 215.28 234.6 222.116 236.109 226.501C236.468 227.545 237.607 228.101 238.651 227.741C239.695 227.382 240.251 226.244 239.891 225.199Z" fill="#AFACAA" blush:i="0.1.0.2.0.0.18"/><path id="Path_20" d="M246.693 232.805C248.127 228.807 250.529 225.964 253.561 225.164C254.629 224.882 255.266 223.787 254.984 222.719C254.702 221.651 253.607 221.014 252.539 221.296C248.014 222.492 244.762 226.339 242.928 231.455C242.555 232.495 243.095 233.64 244.135 234.013C245.175 234.385 246.32 233.845 246.693 232.805Z" fill="#AFACAA" blush:i="0.1.0.2.0.0.19"/><path id="Path_21" d="M252.053 243.359C253.634 240.617 258.547 236.24 260.179 236.355C261.281 236.433 262.237 235.603 262.315 234.501C262.393 233.399 261.563 232.443 260.461 232.365C256.819 232.107 250.865 237.412 248.588 241.361C248.036 242.318 248.364 243.541 249.321 244.092C250.278 244.644 251.501 244.316 252.053 243.359Z" fill="#AFACAA" blush:i="0.1.0.2.0.0.20"/><path id="Path_22" d="M254.84 254.321C255.932 252.481 256.495 251.585 257.348 250.426C259.786 247.114 262.055 245.573 263.943 246.121C265.004 246.429 266.113 245.818 266.421 244.757C266.729 243.696 266.118 242.587 265.057 242.279C261.015 241.106 257.468 243.515 254.126 248.056C253.171 249.354 252.558 250.329 251.4 252.279C250.837 253.229 251.15 254.456 252.1 255.02C253.05 255.584 254.277 255.27 254.84 254.321Z" fill="#AFACAA" blush:i="0.1.0.2.0.0.21"/><path id="Path_23" d="M258.716 262.559C260.055 260.724 260.868 259.666 261.981 258.391C263.59 256.548 265.105 255.172 266.437 254.419C266.887 254.165 267.3 253.992 267.666 253.9C268.738 253.631 269.389 252.545 269.12 251.474C268.852 250.402 267.765 249.751 266.694 250.02C265.955 250.205 265.214 250.516 264.468 250.938C262.665 251.957 260.848 253.607 258.968 255.76C257.757 257.148 256.889 258.277 255.485 260.201C254.834 261.093 255.029 262.344 255.921 262.995C256.813 263.647 258.064 263.451 258.716 262.559Z" fill="#AFACAA" blush:i="0.1.0.2.0.0.22"/><path id="Path_24" d="M237.545 268.756C243.625 273.977 252.447 275.06 264.025 273.004C272.505 271.503 286.306 264.554 289.031 259.027C289.763 257.541 289.153 255.742 287.667 255.009C286.181 254.277 284.382 254.887 283.649 256.373C281.992 259.736 269.757 265.896 262.977 267.096C252.994 268.869 245.867 267.994 241.455 264.204C240.198 263.125 238.304 263.268 237.224 264.525C236.145 265.782 236.288 267.676 237.545 268.756Z" fill="#4C4C4C" blush:i="0.1.0.2.0.0.23"/><path id="Path_25" d="M238.181 292.749C247.111 300.312 260.109 301.969 272.385 298.411C284.251 294.989 294.128 288.065 300.532 277.551C301.394 276.136 300.946 274.29 299.531 273.428C298.116 272.566 296.27 273.014 295.408 274.429C289.835 283.578 281.218 289.619 270.719 292.648C260.223 295.689 249.291 294.296 242.059 288.171C240.795 287.1 238.902 287.257 237.831 288.521C236.76 289.785 236.917 291.678 238.181 292.749Z" fill="#4C4C4C" blush:i="0.1.0.2.0.0.24"/></g></g></g></g></g></g></svg>