<svg width="270" height="80" viewBox="0 0 270 80" fill="none" xmlns="http://www.w3.org/2000/svg">
<path d="M37.5088 51.4673C32.2708 49.3474 27.3531 46.998 22.8081 44.4294C21.1158 46.0302 18.827 47.029 16.3005 47.029C15.7775 47.029 15.2734 46.9585 14.7722 46.8766C11.1948 53.2261 9.37421 59.5069 9.32947 65.6617C10.981 67.634 12.8185 69.4407 14.816 71.0631C22.7495 68.4598 30.7635 63.8446 38.5528 57.3146C37.818 55.995 37.3636 54.5062 37.3636 52.8979C37.3636 52.4069 37.4342 51.9367 37.5088 51.4673Z" fill="#0EA47A"/>
<path d="M6.8845 37.7592C6.8845 36.4095 7.19472 35.1361 7.72369 33.9783C5.57601 32.1302 3.57946 30.2209 1.7599 28.2505C0.620441 31.9675 0 35.9101 0 40.0005C0 47.0478 1.83746 53.6597 5.03511 59.411C5.88126 54.5776 7.69286 49.7142 10.3705 44.8987C8.26061 43.1973 6.8845 40.6475 6.8845 37.7592Z" fill="#0EA47A"/>
<path d="M38.7775 8.67069C41.5327 8.67069 43.9926 9.86327 45.7157 11.7264C49.8639 9.27356 54.2368 6.92696 58.8613 4.72989C53.2386 1.7174 46.8224 0 40.0005 0C32.1048 0 24.7659 2.31839 18.5655 6.26577C23.1015 8.0142 27.4595 9.9197 31.6693 11.9305C33.3964 9.95262 35.9259 8.67069 38.7775 8.67069Z" fill="#0EA47A"/>
<path d="M47.7262 20.6802C52.7653 23.8103 57.4633 27.1162 61.7527 30.5727C65.0349 25.5202 68.0734 20.1573 70.8316 14.5198C68.6988 11.9437 66.225 9.6714 63.5215 7.69818C57.9873 10.2225 52.7762 12.9425 47.925 15.8262C48.0861 16.509 48.1935 17.2106 48.1935 17.9405C48.1935 18.8998 48.0016 19.8084 47.7262 20.6802Z" fill="#0EA47A"/>
<path d="M38.7775 27.2075C36.8705 27.2075 35.0986 26.6384 33.6141 25.6735C30.3718 28.275 27.3968 30.9592 24.7361 33.7244C25.3426 34.9499 25.7145 36.307 25.7145 37.7592C25.7145 38.8483 25.4878 39.8801 25.1358 40.8516C29.458 43.2857 34.1053 45.5439 39.1037 47.5613C40.8109 45.1893 43.6038 43.6262 46.7776 43.6262C48.3645 43.6262 49.8401 44.0513 51.1545 44.7388C54.0131 41.4094 56.7613 37.8843 59.3574 34.1419C55.1496 30.7325 50.5192 27.4633 45.5328 24.3699C43.8186 26.1136 41.4293 27.2075 38.7775 27.2075Z" fill="#0EA47A"/>
<path d="M62.8037 37.0453C60.1817 40.7868 57.4205 44.3259 54.5401 47.6657C55.5811 49.1555 56.1946 50.9557 56.1946 52.8969C56.1946 53.0079 56.1638 53.1123 56.1598 53.2224C62.4735 54.92 69.1015 56.3073 76.0069 57.3324C76.6184 56.0665 77.1623 54.7676 77.6405 53.433C73.7459 47.7871 68.7674 42.2747 62.8037 37.0453Z" fill="#0EA47A"/>
<path d="M46.7776 62.163C44.8378 62.163 43.0331 61.5808 41.5327 60.5867C34.2406 66.6907 26.7277 71.2353 19.2108 74.1264C25.275 77.8283 32.3753 80 40.0005 80C54.2348 80 66.7013 72.5398 73.7886 61.3391C67.271 60.3083 61.003 58.9492 54.9985 57.3221C53.3966 60.1935 50.3322 62.163 46.7776 62.163Z" fill="#0EA47A"/>
<path d="M73.8006 18.6769C71.1657 23.8526 68.2991 28.7979 65.2267 33.4789C70.6238 38.1702 75.3059 43.0882 79.1648 48.1454C79.7106 45.5157 80 42.7929 80 40.0005C79.999 32.1518 77.7061 24.8543 73.8006 18.6769Z" fill="#0EA47A"/>
<path d="M21.6219 30.1268C24.2966 27.3984 27.2437 24.7414 30.4523 22.1728C29.7801 20.8975 29.3635 19.4717 29.3635 17.9395C29.3635 17.1796 29.4818 16.4545 29.6578 15.7481C24.7798 13.4363 19.6682 11.2853 14.3457 9.32529C9.72123 13.1984 6.00257 18.1051 3.50589 23.6805C5.52729 26.0788 7.85096 28.3822 10.3964 30.6018C12.0171 29.3029 14.0544 28.4922 16.3015 28.4922C18.2752 28.4922 20.1056 29.0989 21.6219 30.1268Z" fill="#0EA47A"/>
<path d="M16.0211 41.8683C18.5883 41.8683 20.6694 39.8998 20.6694 37.4714C20.6694 35.043 18.5883 33.0744 16.0211 33.0744C13.4539 33.0744 11.3727 35.043 11.3727 37.4714C11.3727 39.8998 13.4539 41.8683 16.0211 41.8683Z" fill="#0EA47A"/>
<path d="M38.9893 22.2105C41.5565 22.2105 43.6376 20.2419 43.6376 17.8135C43.6376 15.3851 41.5565 13.4166 38.9893 13.4166C36.4221 13.4166 34.341 15.3851 34.341 17.8135C34.341 20.2419 36.4221 22.2105 38.9893 22.2105Z" fill="#0EA47A"/>
<path d="M46.5092 57.2572C49.0764 57.2572 51.1575 55.2886 51.1575 52.8602C51.1575 50.4319 49.0764 48.4633 46.5092 48.4633C43.942 48.4633 41.8608 50.4319 41.8608 52.8602C41.8608 55.2886 43.942 57.2572 46.5092 57.2572Z" fill="#0EA47A"/>
<g style="mix-blend-mode:hard-light">
<path d="M111.132 48H105.218V30.5455H111.252C112.985 30.5455 114.473 30.8949 115.718 31.5938C116.968 32.2869 117.928 33.2841 118.598 34.5852C119.269 35.8864 119.604 37.4432 119.604 39.2557C119.604 41.0739 119.266 42.6364 118.59 43.9432C117.919 45.25 116.951 46.2528 115.684 46.9517C114.422 47.6506 112.905 48 111.132 48ZM108.38 45.2642H110.979C112.195 45.2642 113.209 45.0426 114.022 44.5994C114.834 44.1506 115.445 43.483 115.854 42.5966C116.263 41.7045 116.468 40.5909 116.468 39.2557C116.468 37.9205 116.263 36.8125 115.854 35.9318C115.445 35.0455 114.84 34.3835 114.039 33.946C113.243 33.5028 112.255 33.2812 111.073 33.2812H108.38V45.2642ZM128.267 48.2557C126.955 48.2557 125.821 47.983 124.867 47.4375C123.918 46.8864 123.188 46.108 122.676 45.1023C122.165 44.0909 121.909 42.9006 121.909 41.5312C121.909 40.1847 122.165 39.0028 122.676 37.9858C123.194 36.9631 123.915 36.1676 124.841 35.5994C125.767 35.0256 126.855 34.7386 128.105 34.7386C128.912 34.7386 129.674 34.8693 130.39 35.1307C131.111 35.3864 131.748 35.7841 132.299 36.3239C132.855 36.8636 133.293 37.5511 133.611 38.3864C133.929 39.2159 134.088 40.2045 134.088 41.3523V42.2983H123.358V40.2188H131.131C131.125 39.6278 130.998 39.1023 130.748 38.642C130.498 38.1761 130.148 37.8097 129.699 37.5426C129.256 37.2756 128.739 37.142 128.148 37.142C127.517 37.142 126.963 37.2955 126.486 37.6023C126.009 37.9034 125.637 38.3011 125.37 38.7955C125.108 39.2841 124.975 39.821 124.969 40.4062V42.2216C124.969 42.983 125.108 43.6364 125.387 44.1818C125.665 44.7216 126.054 45.1364 126.554 45.4261C127.054 45.7102 127.64 45.8523 128.31 45.8523C128.759 45.8523 129.165 45.7898 129.529 45.6648C129.892 45.5341 130.208 45.3438 130.475 45.0938C130.742 44.8438 130.944 44.5341 131.08 44.1648L133.961 44.4886C133.779 45.25 133.432 45.9148 132.921 46.483C132.415 47.0455 131.767 47.483 130.978 47.7955C130.188 48.1023 129.284 48.2557 128.267 48.2557ZM136.835 48V30.5455H148.017V33.196H139.997V37.9347H147.25V40.5852H139.997V48H136.835ZM150.761 48V34.9091H153.846V48H150.761ZM152.312 33.0511C151.824 33.0511 151.403 32.8892 151.051 32.5653C150.699 32.2358 150.522 31.8409 150.522 31.3807C150.522 30.9148 150.699 30.5199 151.051 30.196C151.403 29.8665 151.824 29.7017 152.312 29.7017C152.806 29.7017 153.227 29.8665 153.574 30.196C153.926 30.5199 154.102 30.9148 154.102 31.3807C154.102 31.8409 153.926 32.2358 153.574 32.5653C153.227 32.8892 152.806 33.0511 152.312 33.0511ZM168.188 48.2557C166.995 48.2557 165.969 48.0398 165.111 47.608C164.253 47.1761 163.591 46.5938 163.125 45.8608C162.665 45.1222 162.435 44.2898 162.435 43.3636C162.435 42.6648 162.577 42.0455 162.861 41.5057C163.151 40.9659 163.549 40.4659 164.054 40.0057C164.566 39.5455 165.157 39.0881 165.827 38.6335L168.921 36.5284C169.375 36.233 169.719 35.9205 169.952 35.5909C170.191 35.2614 170.31 34.875 170.31 34.4318C170.31 34.0568 170.151 33.7017 169.833 33.3665C169.52 33.0312 169.088 32.8636 168.537 32.8636C168.168 32.8636 167.841 32.9517 167.557 33.1278C167.279 33.2983 167.06 33.5227 166.901 33.8011C166.748 34.0795 166.671 34.375 166.671 34.6875C166.671 35.0682 166.776 35.4545 166.986 35.8466C167.202 36.2386 167.48 36.6449 167.821 37.0653C168.168 37.4858 168.537 37.9318 168.929 38.4034L177.12 48H173.779L166.978 40.2102C166.472 39.6193 165.983 39.0369 165.512 38.4631C165.046 37.8892 164.662 37.2926 164.361 36.6733C164.066 36.0483 163.918 35.3722 163.918 34.6449C163.918 33.821 164.108 33.0852 164.489 32.4375C164.87 31.7841 165.401 31.2699 166.083 30.8949C166.77 30.5199 167.574 30.3324 168.495 30.3324C169.415 30.3324 170.205 30.5142 170.864 30.8778C171.523 31.2415 172.032 31.7244 172.39 32.3267C172.748 32.929 172.926 33.5852 172.926 34.2955C172.926 35.1193 172.722 35.858 172.313 36.5114C171.904 37.1591 171.336 37.7472 170.608 38.2756L167.08 40.858C166.5 41.2784 166.086 41.7045 165.836 42.1364C165.586 42.5625 165.461 42.9261 165.461 43.2273C165.461 43.6875 165.577 44.1051 165.81 44.4801C166.043 44.8551 166.37 45.1562 166.79 45.3835C167.216 45.6051 167.713 45.7159 168.282 45.7159C168.907 45.7159 169.523 45.5767 170.131 45.2983C170.739 45.0142 171.293 44.6108 171.793 44.0881C172.293 43.5653 172.691 42.9403 172.986 42.2131C173.282 41.4801 173.429 40.6676 173.429 39.7756H176.08C176.08 40.8778 175.958 41.8381 175.713 42.6562C175.469 43.4688 175.154 44.1562 174.767 44.7188C174.381 45.2756 173.972 45.7216 173.54 46.0568C173.404 46.1534 173.273 46.25 173.148 46.3466C173.023 46.4432 172.892 46.5398 172.756 46.6364C172.142 47.1932 171.424 47.6023 170.6 47.8636C169.782 48.125 168.978 48.2557 168.188 48.2557ZM184.975 48V30.5455H196.328V33.196H188.137V37.9347H195.74V40.5852H188.137V45.3494H196.396V48H184.975ZM209.764 38.3693L206.951 38.6761C206.872 38.392 206.733 38.125 206.534 37.875C206.341 37.625 206.079 37.4233 205.75 37.2699C205.42 37.1165 205.017 37.0398 204.539 37.0398C203.897 37.0398 203.358 37.179 202.92 37.4574C202.488 37.7358 202.275 38.0966 202.281 38.5398C202.275 38.9205 202.414 39.2301 202.699 39.4688C202.988 39.7074 203.466 39.9034 204.13 40.0568L206.363 40.5341C207.602 40.8011 208.522 41.2244 209.125 41.804C209.733 42.3835 210.039 43.142 210.045 44.0795C210.039 44.9034 209.798 45.6307 209.321 46.2614C208.849 46.8864 208.193 47.375 207.352 47.7273C206.511 48.0795 205.545 48.2557 204.454 48.2557C202.852 48.2557 201.562 47.9205 200.585 47.25C199.608 46.5739 199.025 45.6335 198.838 44.429L201.846 44.1392C201.983 44.7301 202.272 45.1761 202.716 45.4773C203.159 45.7784 203.735 45.929 204.446 45.929C205.179 45.929 205.767 45.7784 206.21 45.4773C206.659 45.1761 206.883 44.804 206.883 44.3608C206.883 43.9858 206.738 43.6761 206.449 43.4318C206.164 43.1875 205.721 43 205.119 42.8693L202.886 42.4006C201.63 42.1392 200.701 41.6989 200.099 41.0795C199.497 40.4545 199.199 39.6648 199.204 38.7102C199.199 37.9034 199.417 37.2045 199.86 36.6136C200.309 36.017 200.931 35.5568 201.727 35.233C202.528 34.9034 203.451 34.7386 204.497 34.7386C206.031 34.7386 207.238 35.0653 208.119 35.7188C209.005 36.3722 209.554 37.2557 209.764 38.3693ZM219.126 34.9091V37.2955H211.6V34.9091H219.126ZM213.458 31.7727H216.544V44.0625C216.544 44.4773 216.606 44.7955 216.731 45.017C216.862 45.233 217.032 45.3807 217.243 45.4602C217.453 45.5398 217.686 45.5795 217.941 45.5795C218.135 45.5795 218.311 45.5653 218.47 45.5369C218.635 45.5085 218.76 45.483 218.845 45.4602L219.365 47.8722C219.2 47.929 218.964 47.9915 218.657 48.0597C218.356 48.1278 217.987 48.1676 217.549 48.179C216.777 48.2017 216.081 48.0852 215.461 47.8295C214.842 47.5682 214.35 47.1648 213.987 46.6193C213.629 46.0739 213.453 45.392 213.458 44.5739V31.7727ZM225.473 48.2642C224.644 48.2642 223.897 48.1165 223.232 47.821C222.573 47.5199 222.05 47.0767 221.664 46.4915C221.283 45.9062 221.093 45.1847 221.093 44.3267C221.093 43.5881 221.229 42.9773 221.502 42.4943C221.775 42.0114 222.147 41.625 222.618 41.3352C223.09 41.0455 223.621 40.8267 224.212 40.679C224.809 40.5256 225.425 40.4148 226.061 40.3466C226.828 40.267 227.451 40.196 227.928 40.1335C228.405 40.0653 228.752 39.9631 228.968 39.8267C229.189 39.6847 229.3 39.4659 229.3 39.1705V39.1193C229.3 38.4773 229.11 37.9801 228.729 37.6278C228.348 37.2756 227.8 37.0994 227.084 37.0994C226.328 37.0994 225.729 37.2642 225.286 37.5938C224.848 37.9233 224.553 38.3125 224.4 38.7614L221.519 38.3523C221.746 37.5568 222.121 36.892 222.644 36.358C223.167 35.8182 223.806 35.4148 224.561 35.1477C225.317 34.875 226.152 34.7386 227.067 34.7386C227.698 34.7386 228.326 34.8125 228.951 34.9602C229.576 35.108 230.147 35.3523 230.664 35.6932C231.181 36.0284 231.596 36.4858 231.908 37.0653C232.226 37.6449 232.385 38.3693 232.385 39.2386V48H229.419V46.2017H229.317C229.13 46.5653 228.865 46.9062 228.525 47.2244C228.189 47.5369 227.766 47.7898 227.255 47.983C226.749 48.1705 226.155 48.2642 225.473 48.2642ZM226.275 45.9972C226.894 45.9972 227.431 45.875 227.885 45.6307C228.34 45.3807 228.689 45.0511 228.934 44.642C229.184 44.233 229.309 43.7869 229.309 43.304V41.7614C229.212 41.8409 229.047 41.9148 228.814 41.983C228.587 42.0511 228.331 42.1108 228.047 42.1619C227.763 42.2131 227.482 42.2585 227.203 42.2983C226.925 42.3381 226.684 42.3722 226.479 42.4006C226.019 42.4631 225.607 42.5653 225.243 42.7074C224.88 42.8494 224.593 43.0483 224.382 43.304C224.172 43.554 224.067 43.8778 224.067 44.2756C224.067 44.8438 224.275 45.2727 224.689 45.5625C225.104 45.8523 225.632 45.9972 226.275 45.9972ZM235.624 48V30.5455H238.709V37.0739H238.837C238.996 36.7557 239.221 36.4176 239.51 36.0597C239.8 35.696 240.192 35.3864 240.686 35.1307C241.181 34.8693 241.811 34.7386 242.578 34.7386C243.59 34.7386 244.502 34.9972 245.314 35.5142C246.132 36.0256 246.78 36.7841 247.257 37.7898C247.74 38.7898 247.982 40.017 247.982 41.4716C247.982 42.9091 247.746 44.1307 247.275 45.1364C246.803 46.142 246.161 46.9091 245.348 47.4375C244.536 47.9659 243.615 48.2301 242.587 48.2301C241.837 48.2301 241.215 48.1051 240.721 47.8551C240.226 47.6051 239.828 47.304 239.527 46.9517C239.232 46.5937 239.002 46.2557 238.837 45.9375H238.658V48H235.624ZM238.65 41.4545C238.65 42.3011 238.769 43.0426 239.007 43.679C239.252 44.3153 239.601 44.8125 240.056 45.1705C240.516 45.5227 241.073 45.6989 241.726 45.6989C242.408 45.6989 242.979 45.517 243.439 45.1534C243.9 44.7841 244.246 44.2812 244.479 43.6449C244.718 43.0028 244.837 42.2727 244.837 41.4545C244.837 40.642 244.721 39.9205 244.488 39.2898C244.255 38.6591 243.908 38.1648 243.448 37.8068C242.988 37.4489 242.414 37.2699 241.726 37.2699C241.067 37.2699 240.507 37.4432 240.047 37.7898C239.587 38.1364 239.238 38.6222 238.999 39.2472C238.766 39.8722 238.65 40.608 238.65 41.4545ZM253.69 30.5455V48H250.605V30.5455H253.69ZM262.658 48.2557C261.346 48.2557 260.212 47.983 259.257 47.4375C258.309 46.8864 257.578 46.108 257.067 45.1023C256.556 44.0909 256.3 42.9006 256.3 41.5312C256.3 40.1847 256.556 39.0028 257.067 37.9858C257.584 36.9631 258.306 36.1676 259.232 35.5994C260.158 35.0256 261.246 34.7386 262.496 34.7386C263.303 34.7386 264.064 34.8693 264.78 35.1307C265.502 35.3864 266.138 35.7841 266.689 36.3239C267.246 36.8636 267.684 37.5511 268.002 38.3864C268.32 39.2159 268.479 40.2045 268.479 41.3523V42.2983H257.749V40.2188H265.522C265.516 39.6278 265.388 39.1023 265.138 38.642C264.888 38.1761 264.539 37.8097 264.09 37.5426C263.647 37.2756 263.13 37.142 262.539 37.142C261.908 37.142 261.354 37.2955 260.877 37.6023C260.4 37.9034 260.027 38.3011 259.76 38.7955C259.499 39.2841 259.365 39.821 259.36 40.4062V42.2216C259.36 42.983 259.499 43.6364 259.777 44.1818C260.056 44.7216 260.445 45.1364 260.945 45.4261C261.445 45.7102 262.03 45.8523 262.701 45.8523C263.15 45.8523 263.556 45.7898 263.919 45.6648C264.283 45.5341 264.598 45.3438 264.865 45.0938C265.132 44.8438 265.334 44.5341 265.471 44.1648L268.351 44.4886C268.169 45.25 267.823 45.9148 267.311 46.483C266.806 47.0455 266.158 47.483 265.368 47.7955C264.578 48.1023 263.675 48.2557 262.658 48.2557Z" fill="#1A1A1A"/>
</g>
</svg>
